<?xml version="1.0" encoding="utf-8"?>
<svg viewBox="0 0 500 354" xmlns="http://www.w3.org/2000/svg">
  <path fill-rule="evenodd" clip-rule="evenodd" d="M 292.432 4.879 L 90.063 4.879 C 42.163 4.879 3.331 43.708 3.331 91.608 L 3.331 265.07 C 3.331 312.97 42.163 351.799 90.063 351.799 L 292.432 351.799 C 340.332 351.799 379.162 312.97 379.162 265.07 L 379.162 91.608 C 379.162 43.708 340.332 4.879 292.432 4.879 Z M 61.152 91.608 C 61.152 75.641 74.095 62.698 90.063 62.698 L 292.432 62.698 C 308.4 62.698 321.343 75.641 321.343 91.608 L 321.343 265.07 C 321.343 281.035 308.4 293.978 292.432 293.978 L 90.063 293.978 C 74.095 293.978 61.152 281.035 61.152 265.07 L 61.152 91.608 Z" style="fill: rgb(231, 231, 231);"/>
  <path fill-rule="evenodd" clip-rule="evenodd" d="M 449.527 38.866 L 349.268 107.713 C 341.497 113.049 336.815 121.834 336.722 131.257 L 335.798 224.209 C 335.702 233.837 340.405 242.88 348.342 248.329 L 449.527 317.812 C 468.71 330.984 494.802 317.249 494.802 293.978 L 494.802 62.698 C 494.802 39.429 468.71 25.694 449.527 38.866 Z M 436.983 239.059 L 393.767 209.386 L 394.39 146.867 L 436.983 117.619 L 436.983 239.059 Z" style="fill: rgb(231, 231, 231);"/>
  <rect x="181.114" y="104.938" width="25.469" height="139.114" style="fill: rgba(231, 231, 231, 0.8); fill-rule: evenodd;"/>
  <rect x="126.244" y="167.615" width="131.281" height="21.568" style="fill: rgba(231, 231, 231, 0.8); fill-rule: evenodd;"/>
</svg>